<svg xmlns="http://www.w3.org/2000/svg" xmlns:xlink="http://www.w3.org/1999/xlink" xmlns:inkscape="http://www.inkscape.org/namespaces/inkscape" version="1.1" width="96" height="96" viewBox="0 0 96 96">
<defs>
<clipPath id="clip_0">
<path transform="matrix(.24,0,0,.24,0,0)" d="M0 0H400V400H0Z" clip-rule="evenodd"/>
</clipPath>
<clipPath id="clip_1">
<path transform="matrix(.24,0,0,.24,0,0)" d="M0 0H400V400H0Z" clip-rule="evenodd"/>
</clipPath>
<clipPath id="clip_2">
<path transform="matrix(.24,0,0,.24,0,0)" d="M9.90991 9.90991H390.09013V390.09013H9.90991Z" clip-rule="evenodd"/>
</clipPath>
<clipPath id="clip_3">
<path transform="matrix(.24,0,0,.24,2.1599999,2.1599999)" d="M0 0H382V382H0Z" clip-rule="evenodd"/>
</clipPath>
<clipPath id="clip_4">
<path transform="matrix(.24,0,0,.24,0,0)" d="M0 0H400V400H0Z"/>
</clipPath>
<clipPath id="clip_5">
<path transform="matrix(.24,0,0,.24,0,0)" d="M0 0H400V400H0Z"/>
</clipPath>
<clipPath id="clip_6">
<path transform="matrix(.24,0,0,.24,0,0)" d="M40 54.356584H364.88648V334.39344H40Z"/>
</clipPath>
<clipPath id="clip_7">
<path transform="matrix(.24,0,0,.24,0,0)" d="M202.1582 54.356584 364.3164 334.39344H40L202.1582 54.356584Z"/>
</clipPath>
<clipPath id="clip_8">
<path transform="matrix(.24,0,0,.24,9.599999,12.96)" d="M0 0H325V281H0Z"/>
</clipPath>
<clipPath id="clip_9">
<path transform="matrix(.24,0,0,.24,0,0)" d="M0 0H400V400H0Z"/>
</clipPath>
<clipPath id="clip_10">
<path transform="matrix(.24,0,0,.24,0,0)" d="M0 0H400V400H0Z"/>
</clipPath>
<clipPath id="clip_11">
<path transform="matrix(.24,0,0,.24,0,0)" d="M40 54.356584H365V335.60658H40Z"/>
</clipPath>
<clipPath id="clip_12">
<path transform="matrix(.24,0,0,.24,0,0)" d="M40.004365 54.356584H368.5874V337.44355H40.004365Z"/>
</clipPath>
<clipPath id="clip_13">
<path transform="matrix(.24,0,0,.24,0,0)" d="M202.1582 54.356584 364.31205 334.38587H40.004365L202.1582 54.356584Z"/>
</clipPath>
</defs>
<g>
<g clip-path="url(#clip_0)">
<path transform="matrix(.75,0,0,.75,0,0)" d="M0 0H128V128H0Z" fill="#ffffff"/>
</g>
<g clip-path="url(#clip_1)">
<path transform="matrix(.75,0,0,.75,0,0)" d="M0 0H128V128H0Z" fill="#ffffff"/>
</g>
<g clip-path="url(#clip_2)">
<g>
<g clip-path="url(#clip_3)">
<path transform="matrix(.35641895,0,0,.35641895,2.3783785,2.3783785)" d="M0 0H256V256H0Z" fill="#fa7c21"/>
</g>
</g>
</g>
<g clip-path="url(#clip_4)">
<g clip-path="url(#clip_5)">
<g clip-path="url(#clip_6)">
<g clip-path="url(#clip_7)">
<g>
<g clip-path="url(#clip_8)">
<path transform="matrix(.26253454,0,0,.26253454,9.599999,13.04558)" d="M0 0H296V256H0Z" fill="#002ca7"/>
</g>
</g>
</g>
</g>
</g>
</g>
<g clip-path="url(#clip_9)">
<g clip-path="url(#clip_10)">
<g clip-path="url(#clip_11)">
<g clip-path="url(#clip_12)">
<g clip-path="url(#clip_13)">
<path transform="matrix(.75000008,0,0,.75000008,9.6010479,13.04558)" stroke-width="2" stroke-linecap="butt" stroke-miterlimit="4" stroke-linejoin="miter" fill="none" stroke="#000000" d="M51.88923 0 103.77846 89.609378H0L51.88923 0Z"/>
</g>
</g>
</g>
</g>
</g>
</g>
</svg>
